<svg xmlns="http://www.w3.org/2000/svg" version="1.1" xmlns:xlink="http://www.w3.org/1999/xlink" xmlns:svgjs="http://svgjs.dev/svgjs" width="1000" height="113" viewBox="0 0 1000 113"><g transform="matrix(1,0,0,1,-0.6060606060606233,0.26214260540425727)"><svg viewBox="0 0 396 45" data-background-color="#333366" preserveAspectRatio="xMidYMid meet" height="113" width="1000" xmlns="http://www.w3.org/2000/svg" xmlns:xlink="http://www.w3.org/1999/xlink"><g id="tight-bounds" transform="matrix(1,0,0,1,0.2400000000000091,-0.10439293779359105)"><svg viewBox="0 0 395.52 45.20878423089502" height="45.20878423089502" width="395.52"><g><svg viewBox="0 0 472.6965619712502 54.03023077681065" height="45.20878423089502" width="395.52"><g transform="matrix(1,0,0,1,77.17656197125028,13.983221809820993)"><svg viewBox="0 0 395.5199999999999 26.06378715716866" height="26.06378715716866" width="395.5199999999999"><g id="textblocktransform"><svg viewBox="0 0 395.5199999999999 26.06378715716866" height="26.06378715716866" width="395.5199999999999" id="textblock"><g><svg viewBox="0 0 395.5199999999999 26.06378715716866" height="26.06378715716866" width="395.5199999999999"><g transform="matrix(1,0,0,1,0,0)"><svg width="395.5199999999999" viewBox="5.420000076293945 -38.650001525878906 594.6000366210938 39.19000244140625" height="26.06378715716866" data-palette-color="url(#96832465-acd7-401e-9817-bb6d99fbb626)"><g class="wordmark-text-0" data-fill-palette-color="primary" id="text-0"></g></svg></g></svg></g></svg></g></svg></g><g><svg viewBox="0 0 71.02352735433453 54.03023077681065" height="54.03023077681065" width="71.02352735433453"><g><svg xmlns="http://www.w3.org/2000/svg" xmlns:xlink="http://www.w3.org/1999/xlink" version="1.1" x="0" y="0" viewBox="8.317541122436523 15.300000190734863 83.86605072021484 63.80001449584961" enable-background="new 0 0 100 100" xml:space="preserve" height="54.03023077681065" width="71.02352735433453" class="icon-icon-0" data-fill-palette-color="accent" id="icon-0"><g fill="#b10dc9" data-fill-palette-color="accent"><polygon points="73.7,57.7 73.7,57.7 73.7,57.7  " fill="#b10dc9" data-fill-palette-color="accent"></polygon><path d="M74.5 58C74.5 58 74.5 58 74.5 58 74.5 58 74.5 58 74.5 58L74.5 58z" fill="#b10dc9" data-fill-palette-color="accent"></path></g><g fill="#b10dc9" data-fill-palette-color="accent"><path d="M92.1 42.5c-0.9-5-8.8-7.9-21.7-8.1-4.6-5.9-11.9-9.7-19.9-9.7-11.4 0-21 7.5-24.2 17.9C14 47.5 7.5 53.1 8.4 58c0.7 3.9 5.8 6.6 14.4 7.7 2.5 0.3 5.2 0.5 8.2 0.5 4.8 5.8 11.9 9.1 19.5 9.1 10.9 0 20.5-6.9 24-17.3 0 0 0 0 0-0.1l0 0C86.6 53.2 93 47.5 92.1 42.5zM50.5 26.3c12.6 0 23.2 10.1 23.7 22.7-0.5 0.3-1 0.6-1.5 0.9-5.1 2.7-12.8 5.2-21.1 6.8-7.7 1.4-15.1 1.9-20.9 1.4-0.2 0-0.4 0-0.6-0.1-0.6-0.1-1.3-0.2-1.8-0.2-0.9-2.5-1.3-5.1-1.3-7.8C26.8 36.9 37.4 26.3 50.5 26.3zM30.5 59.7c1.5 0.1 3.2 0.2 5 0.2 4.9 0 10.5-0.5 16.3-1.6 9.7-1.8 18.5-4.8 23.7-8.1 3.5-2.2 5-4.4 4.6-6.4-0.4-2.1-2.6-3.5-6.6-4.4-0.1-0.4-0.3-0.7-0.5-1 7 0.7 11.4 2.5 11.9 5.1 0.5 2.7-3.4 6.2-10.4 9.5-6 2.8-14 5.2-22.3 6.8-9.4 1.7-18.4 2.3-25.4 1.5-6.5-0.7-10.6-2.6-11-5-0.5-2.6 3.2-6 9.8-9.2 0 0.4-0.1 0.7-0.1 1.1-3.8 2.3-5.5 4.6-5.2 6.8C20.6 57.4 24.2 59.1 30.5 59.7zM74.2 41.2c2.5 0.7 4 1.7 4.2 2.8 0.2 1.1-0.8 2.5-2.7 4C75.5 45.6 75 43.4 74.2 41.2zM21.7 54.5c-0.2-1.2 1-2.8 3.5-4.5 0 2.5 0.4 5 1.1 7.4C23.6 56.7 21.9 55.7 21.7 54.5zM50.5 73.7c-6.6 0-12.8-2.7-17.3-7.5 6.1-0.1 12.8-0.8 19.6-2 7-1.3 13.8-3.1 19.6-5.3C68.9 67.7 60.2 73.7 50.5 73.7zM73.7 57.7L73.7 57.7 73.7 57.7 73.7 57.7zM73.9 56.4c-2.5 1-5.1 1.9-7.9 2.8-4.2 1.3-8.8 2.4-13.5 3.3-4.7 0.9-9.2 1.5-13.6 1.8 0 0 0 0 0 0-5.8 0.4-11.2 0.3-15.8-0.2-7.7-1-12.4-3.2-12.9-6.3-0.7-3.8 5.2-8.7 15.6-13 0 0.1 0 0.2-0.1 0.3-8.3 3.8-12.5 7.9-11.8 11.6 0.6 3.3 4.9 5.5 12.5 6.3 2.2 0.2 4.5 0.4 7 0.4 5.7 0 12.2-0.6 18.9-1.9 8.5-1.6 16.6-4 22.8-6.9v0c8-3.7 12-7.8 11.4-11.4-0.7-3.6-5.8-5.9-14.5-6.5-0.1-0.1-0.2-0.2-0.2-0.4 10.9 0.4 18 2.9 18.8 6.7C91.1 46.8 84.8 52 73.9 56.4z" fill="#b10dc9" data-fill-palette-color="accent"></path></g><g fill="#b10dc9" data-fill-palette-color="accent"><path d="M32.7 26.1c-2.3 0-3.9-1.6-3.9-3.9 0-0.4-0.4-0.8-0.8-0.8-0.5 0-0.8 0.4-0.8 0.8 0 2.3-1.6 3.9-3.9 3.9-0.5 0-0.8 0.4-0.8 0.8s0.4 0.8 0.8 0.8c2.3 0 3.9 1.6 3.9 3.9 0 0.5 0.4 0.8 0.8 0.8 0.4 0 0.8-0.4 0.8-0.8 0-2.3 1.6-3.9 3.9-3.9 0.5 0 0.8-0.4 0.8-0.8S33.1 26.1 32.7 26.1zM27.9 28.7c-0.4-0.7-1-1.3-1.7-1.7 0.7-0.4 1.3-1 1.7-1.7 0.4 0.7 1 1.3 1.7 1.7C28.9 27.4 28.3 28 27.9 28.7z" fill="#b10dc9" data-fill-palette-color="accent"></path></g><g fill="#b10dc9" data-fill-palette-color="accent"><path d="M80.4 72.8c-2.3 0-3.9-1.6-3.9-3.9 0-0.5-0.4-0.8-0.8-0.8-0.5 0-0.8 0.4-0.8 0.8 0 2.3-1.6 3.9-3.9 3.9-0.5 0-0.8 0.4-0.8 0.8 0 0.4 0.4 0.8 0.8 0.8 2.3 0 3.9 1.6 3.9 3.9 0 0.4 0.4 0.8 0.8 0.8 0.5 0 0.8-0.4 0.8-0.8 0-2.3 1.6-3.9 3.9-3.9 0.5 0 0.8-0.4 0.8-0.8C81.2 73.2 80.9 72.8 80.4 72.8zM75.7 75.3c-0.4-0.7-1-1.3-1.7-1.7 0.7-0.4 1.3-1 1.7-1.7 0.4 0.7 1 1.3 1.7 1.7C76.7 74.1 76.1 74.6 75.7 75.3z" fill="#b10dc9" data-fill-palette-color="accent"></path></g><g fill="#b10dc9" data-fill-palette-color="accent"><path d="M63.3 15.3c-1.3 0-2.4 1.1-2.4 2.4 0 1.3 1.1 2.4 2.4 2.4 1.3 0 2.4-1.1 2.4-2.4C65.7 16.4 64.6 15.3 63.3 15.3zM63.3 18.5c-0.4 0-0.8-0.3-0.8-0.8 0-0.4 0.3-0.8 0.8-0.8 0.4 0 0.8 0.3 0.8 0.8C64.1 18.1 63.7 18.5 63.3 18.5z" fill="#b10dc9" data-fill-palette-color="accent"></path></g><g fill="#b10dc9" data-fill-palette-color="accent"><path d="M23.1 72.2c-1.2 0-2.2 1-2.2 2.2 0 1.2 1 2.2 2.2 2.2 1.2 0 2.2-1 2.2-2.2C25.4 73.2 24.4 72.2 23.1 72.2zM23.1 75.1c-0.3 0-0.6-0.3-0.6-0.6 0-0.3 0.3-0.6 0.6-0.6 0.3 0 0.6 0.3 0.6 0.6C23.7 74.8 23.5 75.1 23.1 75.1z" fill="#b10dc9" data-fill-palette-color="accent"></path></g><g fill="#b10dc9" data-fill-palette-color="accent"><path d="M81.9 59.8c-1.4 0-2.6 1.2-2.6 2.6 0 1.4 1.2 2.6 2.6 2.6 1.4 0 2.6-1.1 2.6-2.6C84.5 60.9 83.3 59.8 81.9 59.8zM81.9 63.3c-0.5 0-0.9-0.4-0.9-0.9 0-0.5 0.4-0.9 0.9-0.9 0.5 0 0.9 0.4 0.9 0.9C82.8 62.9 82.4 63.3 81.9 63.3z" fill="#b10dc9" data-fill-palette-color="accent"></path></g></svg></g></svg></g></svg></g><defs></defs><mask id="96b16d44-bb1d-4c1b-b35c-184e119a32d3"><g id="SvgjsG2517"><svg viewBox="0 0 395.52 45.20878423089502" height="45.20878423089502" width="395.52"><g><svg viewBox="0 0 472.6965619712502 54.03023077681065" height="45.20878423089502" width="395.52"><g transform="matrix(1,0,0,1,77.17656197125028,13.983221809820993)"><svg viewBox="0 0 395.5199999999999 26.06378715716866" height="26.06378715716866" width="395.5199999999999"><g id="SvgjsG2516"><svg viewBox="0 0 395.5199999999999 26.06378715716866" height="26.06378715716866" width="395.5199999999999" id="SvgjsSvg2515"><g><svg viewBox="0 0 395.5199999999999 26.06378715716866" height="26.06378715716866" width="395.5199999999999"><g transform="matrix(1,0,0,1,0,0)"><svg width="395.5199999999999" viewBox="5.420000076293945 -38.650001525878906 594.6000366210938 39.19000244140625" height="26.06378715716866" data-palette-color="url(#96832465-acd7-401e-9817-bb6d99fbb626)"><g class="wordmark-text-0" data-fill-palette-color="primary" id="SvgjsG2514"><path d="M5.42 0L5.42-38.16 25.81-38.16Q29.54-38.16 32.31-37.37 35.08-36.57 36.91-35.18 38.75-33.79 39.64-31.87 40.53-29.96 40.53-27.73L40.53-27.73Q40.53-24.1 38.23-21.36L38.23-21.36Q40.87-19.8 42.16-17.31 43.46-14.82 43.46-11.65L43.46-11.65Q43.46-8.98 42.57-6.84 41.67-4.69 39.86-3.16 38.04-1.64 35.27-0.82 32.5 0 28.74 0L28.74 0 5.42 0ZM13.16-23.51L28.78-23.51Q29.79-23.51 30.74-23.44L30.74-23.44Q32.37-25 32.37-27L32.37-27Q32.37-29.08 30.75-30.21 29.13-31.35 26-31.35L26-31.35 13.16-31.35 13.16-23.51ZM13.16-6.74L28.93-6.74Q32.06-6.74 33.68-8.08 35.3-9.42 35.3-11.87L35.3-11.87Q35.3-14.31 33.68-15.67 32.06-17.04 28.93-17.04L28.93-17.04 13.16-17.04 13.16-6.74ZM51.29 0L51.29-38.16 59.03-38.16 59.03-6.79 81.22-6.79 81.22 0 51.29 0ZM83.81 0L101.73-38.16 109.93-38.16 128.39 0 120.26 0 117.21-6.42 94.92-6.42 91.96 0 83.81 0ZM97.87-12.79L114.16-12.79 105.9-30.13 97.87-12.79ZM132-19.31L132-19.31Q132-23.39 133.54-26.92 135.08-30.44 137.99-33.04 140.91-35.64 145.12-37.13 149.33-38.62 154.66-38.62L154.66-38.62Q159.32-38.62 163.21-37.68 167.11-36.74 170.45-34.81L170.45-34.81 166.89-28.96Q165.89-29.61 164.58-30.13 163.27-30.64 161.8-30.99 160.32-31.35 158.74-31.54 157.17-31.74 155.63-31.74L155.63-31.74Q151.92-31.74 149.02-30.82 146.11-29.91 144.12-28.26 142.13-26.61 141.09-24.33 140.06-22.05 140.06-19.31L140.06-19.31Q140.06-16.48 141.13-14.11 142.2-11.74 144.24-10.02 146.28-8.3 149.22-7.34 152.17-6.37 155.88-6.37L155.88-6.37Q157.56-6.37 159.22-6.62 160.88-6.86 162.43-7.29 163.98-7.71 165.42-8.31 166.86-8.91 168.11-9.62L168.11-9.62 171.67-3.76Q168.55-1.76 164.45-0.62 160.34 0.51 155.73 0.51L155.73 0.51Q149.85 0.51 145.4-1.01 140.96-2.54 137.98-5.21 135-7.89 133.5-11.51 132-15.14 132-19.31ZM180.19 0L180.19-38.16 187.93-38.16 187.93-18.41 208.07-38.16 217.98-38.16 199.18-19.95 217.98 0 207.68 0 193.62-14.55 187.93-9.06 187.93 0 180.19 0ZM219.71-16.7L219.71-22.12 242.1-22.12 242.1-16.7 219.71-16.7ZM248.52-5.08L252.65-11.35Q254.72-10.18 256.86-9.24 258.99-8.3 261.29-7.65 263.58-7.01 266.11-6.67 268.64-6.32 271.49-6.32L271.49-6.32Q274.94-6.32 277.35-6.77 279.77-7.23 281.3-8.02 282.82-8.81 283.52-9.91 284.21-11.01 284.21-12.3L284.21-12.3Q284.21-14.38 282.48-15.59 280.75-16.8 277.13-16.8L277.13-16.8Q275.55-16.8 273.79-16.59 272.03-16.38 270.24-16.14 268.44-15.89 266.7-15.69 264.95-15.48 263.41-15.48L263.41-15.48Q260.85-15.48 258.49-16.14 256.14-16.8 254.32-18.12 252.5-19.43 251.43-21.41 250.35-23.39 250.35-26.03L250.35-26.03Q250.35-27.59 250.78-29.13 251.21-30.66 252.15-32.07 253.09-33.47 254.57-34.68 256.06-35.89 258.18-36.77 260.29-37.65 263.06-38.15 265.83-38.65 269.37-38.65L269.37-38.65Q271.93-38.65 274.52-38.37 277.11-38.09 279.56-37.57 282.02-37.06 284.29-36.34 286.56-35.62 288.51-34.74L288.51-34.74 285.12-28.49Q283.51-29.2 281.65-29.8 279.79-30.4 277.77-30.83 275.74-31.27 273.58-31.53 271.42-31.79 269.17-31.79L269.17-31.79Q265.98-31.79 263.91-31.32 261.85-30.86 260.63-30.14 259.41-29.42 258.93-28.53 258.46-27.64 258.46-26.76L258.46-26.76Q258.46-25.05 259.99-23.96 261.53-22.88 264.68-22.88L264.68-22.88Q265.95-22.88 267.6-23.06 269.25-23.24 271.07-23.46 272.89-23.68 274.78-23.86 276.67-24.05 278.45-24.05L278.45-24.05Q281.82-24.05 284.42-23.29 287.02-22.53 288.78-21.13 290.54-19.73 291.44-17.74 292.34-15.75 292.34-13.28L292.34-13.28Q292.34-9.99 290.82-7.41 289.29-4.83 286.47-3.06 283.65-1.29 279.67-0.38 275.69 0.54 270.81 0.54L270.81 0.54Q267.59 0.54 264.51 0.13 261.44-0.27 258.62-1.01 255.8-1.76 253.24-2.8 250.69-3.83 248.52-5.08L248.52-5.08ZM300.86 0L300.86-38.16 320.98-38.16Q325.37-38.16 328.6-37.21 331.82-36.25 333.94-34.46 336.07-32.67 337.1-30.08 338.14-27.49 338.14-24.24L338.14-24.24Q338.14-21.19 337.12-18.6 336.09-16.02 333.98-14.12 331.87-12.23 328.64-11.17 325.42-10.11 321.03-10.11L321.03-10.11 308.6-10.13 308.6 0 300.86 0ZM308.6-16.82L321.17-16.82Q323.37-16.82 325.02-17.35 326.67-17.87 327.78-18.84 328.89-19.8 329.44-21.18 329.99-22.56 329.99-24.24L329.99-24.24Q329.99-27.64 327.78-29.53 325.57-31.42 321.17-31.42L321.17-31.42 308.6-31.42 308.6-16.82ZM341.68 0L359.6-38.16 367.8-38.16 386.26 0 378.13 0 375.08-6.42 352.79-6.42 349.83 0 341.68 0ZM355.74-12.79L372.03-12.79 363.77-30.13 355.74-12.79ZM392.19 0L392.19-38.16 411.6-38.16Q415.99-38.16 419.22-37.24 422.44-36.33 424.56-34.59 426.69-32.86 427.72-30.37 428.76-27.88 428.76-24.73L428.76-24.73Q428.76-22.61 428.25-20.69 427.74-18.77 426.67-17.16 425.61-15.55 424-14.29 422.39-13.04 420.22-12.21L420.22-12.21 428.52 0 419.04 0 411.87-10.84 411.65-10.84 399.93-10.86 399.93 0 392.19 0ZM399.93-17.55L411.79-17.55Q413.99-17.55 415.64-18.07 417.29-18.58 418.4-19.51 419.51-20.43 420.06-21.77 420.61-23.1 420.61-24.73L420.61-24.73Q420.61-27.93 418.41-29.68 416.21-31.42 411.79-31.42L411.79-31.42 399.93-31.42 399.93-17.55ZM437.91 0L437.91-38.16 445.65-38.16 445.65-18.41 465.8-38.16 475.71-38.16 456.91-19.95 475.71 0 465.4 0 451.34-14.55 445.65-9.06 445.65 0 437.91 0ZM479.51 0L479.51-38.16 487.25-38.16 487.25-6.79 509.45-6.79 509.45 0 479.51 0ZM516.94 0L516.94-38.16 549.43-38.16 549.43-31.37 524.68-31.37 524.68-23.75 546.6-23.75 546.6-17.38 524.68-17.38 524.68-6.76 549.95-6.76 549.95 0 516.94 0ZM556.19-5.08L560.32-11.35Q562.39-10.18 564.53-9.24 566.67-8.3 568.96-7.65 571.26-7.01 573.78-6.67 576.31-6.32 579.17-6.32L579.17-6.32Q582.61-6.32 585.03-6.77 587.44-7.23 588.97-8.02 590.49-8.81 591.19-9.91 591.89-11.01 591.89-12.3L591.89-12.3Q591.89-14.38 590.15-15.59 588.42-16.8 584.81-16.8L584.81-16.8Q583.22-16.8 581.46-16.59 579.7-16.38 577.91-16.14 576.11-15.89 574.37-15.69 572.62-15.48 571.09-15.48L571.09-15.48Q568.52-15.48 566.17-16.14 563.81-16.8 561.99-18.12 560.17-19.43 559.1-21.41 558.02-23.39 558.02-26.03L558.02-26.03Q558.02-27.59 558.45-29.13 558.88-30.66 559.82-32.07 560.76-33.47 562.25-34.68 563.74-35.89 565.85-36.77 567.96-37.65 570.73-38.15 573.5-38.65 577.04-38.65L577.04-38.65Q579.61-38.65 582.19-38.37 584.78-38.09 587.24-37.57 589.69-37.06 591.96-36.34 594.23-35.62 596.18-34.74L596.18-34.74 592.79-28.49Q591.18-29.2 589.32-29.8 587.47-30.4 585.44-30.83 583.41-31.27 581.25-31.53 579.09-31.79 576.85-31.79L576.85-31.79Q573.65-31.79 571.59-31.32 569.52-30.86 568.3-30.14 567.08-29.42 566.61-28.53 566.13-27.64 566.13-26.76L566.13-26.76Q566.13-25.05 567.67-23.96 569.21-22.88 572.36-22.88L572.36-22.88Q573.62-22.88 575.27-23.06 576.92-23.24 578.74-23.46 580.56-23.68 582.45-23.86 584.34-24.05 586.12-24.05L586.12-24.05Q589.49-24.05 592.09-23.29 594.69-22.53 596.45-21.13 598.21-19.73 599.11-17.74 600.02-15.75 600.02-13.28L600.02-13.28Q600.02-9.99 598.49-7.41 596.96-4.83 594.14-3.06 591.32-1.29 587.35-0.38 583.37 0.54 578.48 0.54L578.48 0.54Q575.26 0.54 572.18 0.13 569.11-0.27 566.29-1.01 563.47-1.76 560.92-2.8 558.37-3.83 556.19-5.08L556.19-5.08Z" fill="white"></path></g></svg></g></svg></g></svg></g></svg></g><g><svg viewBox="0 0 71.02352735433453 54.03023077681065" height="54.03023077681065" width="71.02352735433453"><g><svg xmlns="http://www.w3.org/2000/svg" xmlns:xlink="http://www.w3.org/1999/xlink" version="1.1" x="0" y="0" viewBox="8.317541122436523 15.300000190734863 83.86605072021484 63.80001449584961" enable-background="new 0 0 100 100" xml:space="preserve" height="54.03023077681065" width="71.02352735433453" class="icon-icon-0" data-fill-palette-color="accent" id="SvgjsSvg2513"></svg></g></svg></g></svg></g><defs></defs></svg></g></mask><linearGradient x1="0" x2="1" y1="0.548" y2="0.55" id="96832465-acd7-401e-9817-bb6d99fbb626"><stop stop-color="#ff6cab" offset="0"></stop><stop stop-color="#7366ff" offset="1"></stop></linearGradient><rect width="395.5199890136719" height="45.20878601074219" fill="url(#96832465-acd7-401e-9817-bb6d99fbb626)" mask="url(#96b16d44-bb1d-4c1b-b35c-184e119a32d3)" data-fill-palette-color="primary"></rect></svg><rect width="395.52" height="45.20878423089502" fill="none" stroke="none" visibility="hidden"></rect></g></svg></g></svg>